# xmcd CD database file
#
# Track frame offsets:
#	150
#	14967
#	31427
#	49665
#	61652
#	76392
#	90830
#	105645
#	117045
#	129667
#	142620
#	157840
#	171642
#	187357
#
# Disc length: 2677 seconds
#
# Revision: 0
# Processed by: cddbd v1.5.1PL2 Copyright (c) Steve Scherf et al.
# Submitted via: CDex 1.40Beta8
#
DISCID=b40a730e
DTITLE=Ross, Allen and Hank Rotten - Rotten Roll
DYEAR=1995
DGENRE=Country
TTITLE0=Black Denim Trousers
TTITLE1=Brain Damage
TTITLE2=Woody's Big Tattoo
TTITLE3=Harley in the Rain
TTITLE4=Payback's a Bitch
TTITLE5=Wideload
TTITLE6=Dickhead
TTITLE7=That Tequila
TTITLE8=Butt to the Wall
TTITLE9=PLO Lady
TTITLE10=Harleys and a Whorehouse
TTITLE11=Full Speed
TTITLE12=Merry X-mas Charlie
TTITLE13=Harley in the Sky
EXTD=YEAR: 1995 ID3G: 2
EXTT0=
EXTT1=
EXTT2=
EXTT3=
EXTT4=
EXTT5=
EXTT6=
EXTT7=
EXTT8=
EXTT9=
EXTT10=
EXTT11=
EXTT12=
EXTT13=
PLAYORDER=
